<svg xmlns="http://www.w3.org/2000/svg" xmlns:svg="http://www.w3.org/2000/svg" id="svg8" width="210mm" height="297mm" version="1.1" viewBox="0 0 210 297"><metadata id="metadata5"/><g id="layer1"><path id="path4115" fill="#ff7113" fill-opacity="1" stroke="#131313" stroke-linecap="butt" stroke-linejoin="miter" stroke-opacity="1" stroke-width=".265" d="M 0,0 105.26637,297 210,0 C 165.77236,125.41921 44.600518,125.83652 0,0 Z"/><flowRoot id="flowRoot5158" fill="#000" fill-opacity="1" stroke="none" font-family="sans-comic" font-size="40" font-stretch="normal" font-style="normal" font-variant="normal" font-weight="normal" letter-spacing="0" word-spacing="0" xml:space="preserve" style="line-height:1.25;-inkscape-font-specification:sans-comic"><flowRegion style="-inkscape-font-specification:sans-comic" id="flowRegion5160" font-family="sans-comic" font-stretch="normal" font-style="normal" font-variant="normal" font-weight="normal"><rect font-family="sans-comic" style="-inkscape-font-specification:sans-comic" id="rect5162" width="477.98" height="45.25" x="162.857" y="388.234" font-stretch="normal" font-style="normal" font-variant="normal" font-weight="normal"/></flowRegion><flowPara id="flowPara5164"/></flowRoot><flowRoot font-style="normal" style="line-height:1.25;-inkscape-font-specification:sans-comic;text-align:center" id="flowRoot5166" fill="#000" fill-opacity="1" stroke="none" baseline-shift="baseline" font-family="sans-comic" font-size="53.333" font-stretch="normal" font-variant="normal" font-weight="normal" letter-spacing="0" text-anchor="middle" transform="matrix(0.26458333,0,0,0.26458333,-0.61619717,-3.9436619)" word-spacing="0" xml:space="preserve"><flowRegion style="-inkscape-font-specification:sans-comic;text-align:center" id="flowRegion5168" baseline-shift="baseline" font-family="sans-comic" font-size="53.333" font-stretch="normal" font-style="normal" font-variant="normal" font-weight="normal" text-anchor="middle"><rect id="rect5170" width="426.914" height="135.47" x="183.086" y="381.091" baseline-shift="baseline" font-family="sans-comic" font-size="53.333" font-stretch="normal" font-style="normal" font-variant="normal" font-weight="normal" text-anchor="middle" style="-inkscape-font-specification:sans-comic;text-align:center"/></flowRegion><flowPara style="-inkscape-font-specification:'Bitstream Vera Serif'" id="flowPara5172" font-family="Bitstream Vera Serif" font-size="48" font-stretch="normal" font-style="normal" font-variant="normal" font-weight="bold">Digitalnook.net</flowPara></flowRoot><path id="path5190" fill="#ff0" fill-rule="evenodd" stroke-width=".265" d="m 77.407646,137.08204 -0.364638,10.51853 -5.547742,-8.9147 -9.98675,2.95993 6.47652,-8.14529 -5.628144,-8.43455 9.679167,3.8896 6.297362,-8.18613 -0.68161,10.18716 9.855948,3.7039 z"/><path id="path5192" fill="#ff0" fill-rule="evenodd" stroke-width=".265" d="m 111.39038,133.93 -6.53862,-3.35606 -4.859127,5.22976 1.192027,-7.0201 -6.462482,-2.98646 6.968642,-1.12236 0.88947,-7.10808 3.32709,6.29104 6.95859,-1.35962 -5.05643,5.13934 z"/><path id="path5194" fill="#ff0" fill-rule="evenodd" stroke-width=".265" d="m 112.94751,180.07083 -9.70306,-3.97582 -6.342166,8.03129 0.846142,-10.38695 -9.940945,-3.59863 10.088866,-2.59367 0.668042,-10.47831 5.449011,8.89753 10.02331,-2.52176 -6.83866,7.7759 z"/><path id="path5196" fill="#ff0" fill-rule="evenodd" stroke-width=".265" d="m 140.34401,159.81989 -8.03931,-3.32176 -5.56644,6.79741 0.584,-8.87995 -8.27549,-3.09885 8.71142,-2.16628 0.47348,-8.81824 4.54786,7.62288 8.69339,-2.32184 -5.94975,6.7908 z"/><path id="path5198" fill="#ff0" fill-rule="evenodd" stroke-width=".265" d="m 89.050723,208.20881 -4.95232,-2.21511 -3.500954,3.97573 0.640432,-5.28511 -5.048773,-2.19248 5.309111,-1.09805 0.495566,-5.29818 2.642226,4.71871 5.260623,-1.19445 -3.656568,3.96574 z"/><path id="path5200" fill="#ff0" fill-rule="evenodd" stroke-width=".265" d="m 118.62857,224.4857 -7.88321,-2.54939 -4.80612,7.04192 -0.12281,-8.38361 -8.044321,-2.23429 7.943111,-2.71452 -0.38766,-8.42032 5.18444,6.62951 7.75043,-2.77523 -4.8428,6.7947 z"/><path id="path5202" fill="#ff0" fill-rule="evenodd" stroke-width=".265" d="m 106.95287,247.24555 -6.14683,-1.43189 -2.995943,5.41694 -0.636071,-6.10974 -6.165587,-1.29275 5.791628,-2.4392 -0.57487,-6.23318 4.079103,4.7271 5.78059,-2.5379 -3.32282,5.35567 z"/><path id="path5204" fill="#ff0" fill-rule="evenodd" stroke-width=".265" d="m 107.39521,272.07002 -3.53691,-2.75964 -3.55108,2.55407 1.55018,-4.04802 -3.51291,-2.70156 4.31848,0.17481 1.45166,-4.11819 1.21256,4.26459 4.33413,-0.0195 -3.66201,2.48344 z"/></g></svg>